/* XPM */
static char * blueflowerright[] = {
/* width height ncolors chars_per_pixel */
"113 134 68 1",
/* colors */
"  c #FF00FF",
"! c #C7CEEB",
"# c #C7D0EB",
"$ c #CED5ED",
"% c #D3D9EF",
"& c #D7DDF1",
"' c #D9DFF1",
"( c #D9DDF1",
") c #CCD3ED",
"* c #D0D7EF",
"+ c #DBE1F2",
", c #F9F9FD",
"- c #DBDFF1",
". c #F9FBFD",
"/ c #DBDFF2",
"0 c #C5CEEB",
"1 c #DDE1F2",
"2 c #D9DFF2",
"3 c #FBFBFD",
"4 c #CAD0ED",
"5 c #F8F9FD",
"6 c #D5DBF1",
"7 c #CCD5ED",
"8 c #CAD3ED",
"9 c #D5DBEF",
": c #CAD0EB",
"; c #F6F8FB",
"< c #F4F6FB",
"= c #CED7EF",
"> c #F8F8FB",
"? c #CAD3EB",
"@ c #D0D7ED",
"A c #FBFBFF",
"B c #D7DBF1",
"C c #D5D9EF",
"D c #F6F6FB",
"E c #F2F4F9",
"F c #D0D9EF",
"G c #D3D7EF",
"H c #F1F2F9",
"I c #F8F8FD",
"J c #C5CEE9",
"K c #CCD3EB",
"L c #DDE3F2",
"M c #F4F4FB",
"N c #EDEFF8",
"O c #EFF1F9",
"P c #F2F4FB",
"Q c #EFF1F8",
"R c #EBEFF8",
"S c #FBFDFF",
"T c #E7EBF6",
"U c #EDF1F8",
"V c #D7DBEF",
"W c #E9EBF6",
"X c #E1E5F4",
"Y c #EBEDF8",
"Z c #E5E9F6",
"[ c #E9EDF6",
"] c #E3E7F4",
"^ c #E7E9F6",
"_ c #DFE3F4",
"` c #EFF2F9",
"a c #E5E7F6",
"b c #DFE3F2",
"c c #E5E9F4",
"d c #E3E5F4",
"e c #E9EDF8",
/* pixels */
"            !J0!0!0!0!!0!0!00!0#0#0#!00#!!!#!!!#!%%CC6966B9*(+2'-/1+1++-/'/-/8)b^[NNOHHHEHEEEEME<M<M<<<<<M<<<E<MP",
"          !J0!!0!0!0!00!0!0!#0!0!!!0!#!!!#0!#!#!#!##!#!#!#B&&69/'+-+11/++-+-=$1ZeNOO`HHEPEPE<M<<<<<<<<<D<<<<M<<M<",
"        !!0!!0J!J!J!0!!0#0#0!!#0#!#!#!#!#!#!#!##4#!#########:#:#&B-/+111++/-%6ZWNUOHHEEPEE<M<<M<<<<<<;<<<;<D<<<<<",
"      !!0J!0J!!0!0!0#0#!!!!!#!!#!#!!##########4#:#4:4:444:4:4:48:K8?&/111++C&XTNUHHHEEPEM<<<<<<;<DD;DD;D;DD;<;D<<",
"     0J0!!0!!000#!#!!!#!#!#!#######4#4#::44:4:4?44?4?8??888?88K8)48)))?811''/TYOOHHEPE<<<<<<D<;D;D;D;;;D;;;D;DD;D",
"     !!!00!00!#!0!!!##!#####4#4:444:4:848?88)?)8?))8)))))))7)7)$)7)777$7)00/]YUHHEE<M<<D<<D;D;D;;;;>;;;I;;;D;;;D;",
"    !000!0#!#!!!######4#4:4:4?4???8)8)))K))7)7)$)$7$$7$$$$$=$$=$$$*$*$$*=#!+WNOHEEEM<<<<D;D;;;;I;;I;I;>;I;I;;I;;;",
"    J!!0#!0!#!#####:4:4?4?888))))))7)7$$7$$$$$$=$*$$$*=@=@@***G*%**F*FFG*!$]ROHHEM<<<<;D;;;;;>;;;5>>>5I>I>;5I;I;;",
"     00!0!#!###:4:48?8)8))))7)7$$$$=$$$$$==*@*****%FGFG%%%%%%%9%%C9%9CC96#&WNHEE<<<<;DDI;;;>;>5>>>5>5>>5>55;I>>5>",
"     !!0#!!##:448K88))))7$$$$$@$=*@**FGF%G%%%%C%9%C%6C9696969666&6B&B&&&&)XRHHEM<<D;D;;;;>5>5>5>55>555555>>>55I;I",
"      0#!###:4?:?8))7$7$$$=@***FG*%%C%%%6C969666&B&&B&B&&&((&'(((('((2(('GTNHEP<<D;;;;>5>>5>>>55>,55>5,>55555>55>",
"       !!!##?:48))))$$$$=****%%%%9696&6&B&&&'&((((&(2('(2('('(2'2''2'''226[HHM<<;D;;>>>>5>5555,5555,5,,5,55>555>5",
"        0#!!#4?88)7$$$=@@*%%%C6996B&&(&((('(('''2'2'''22/'222'2'/'2-2-2-$bNHE<<D;;>;>55>55>5,,55,,,5,55,5,,5,>55>",
"         !!#:#4?)))7$$$***%%%99BB&'&(2''2-22/2/2----/----+-/-/-+-/-/-/--=aQEM<;;;;>55>555,,555,,,5.,,,,,,55,5,5,5",
"           !!##4:)7)$$=@**%%C66&&&(&'('2'2'---+-/+/+++/+/-+-+-+-/+/+/+/+CT`E<D;;>>5>,55,,5,,.,,5,.,5.,,5,,,5,5,55",
"             !!##?47))$=*@*%6C99&(&(2(2(/-//+/+1111+111+1+1+/1+++-+-+-+/9YH<<;;;5>5555,5,.5,,,.,.,,.,..,.,,,,,5,,",
"               #!##:8))$$=**F%96B&&(&'(''2-'-+-+++11111111111+-1/+1+/+/+'NH<D;>>>555,,,,,,,.,.,.,..,.,.,.,5.5.,55",
"                 !!##4?G)7$@*%*%96&&&((2('2/2-/--+-++++1+1+1+11+1+-/1-+&dUM<;;55,5,,,,5.,..,.,.,.,,,.,.,.,.,,,,,,",
"                    !!##8)*%%$=*G%%9B&&&('(''2-2/-/---+-+/-+-+-+-+++-+/(ZQE;;>>555,,,..,3,,.3.,.3.3..3,3,.,.,.5,5",
"                       !!#:48G%%96&(%F%%&&((2('''2'/2/-/--+-/'+//2-/-/2(cO<D5>55,,,..,,3..3,.33.,3,3,..,3,.,.,,,,",
"                           !##:8*%%99B&&&(2'&(&(&(&''''2'2'2//-''-2'2('&XQ<;>5,,.,.,,...,3.33,333.3.3.3...,.,.5.,",
"                               #!#:8*G%%69B&(&(2&'('/+/-+1('('&'2(&(''&(1Q<;555,.,,.33,33,A,A.A,.A,3,3,3,3,.,.,,,",
"                                    !##4?*FG&&6%B&&((((2((2'/-+//+-/'B96!Q<>55,,,.3.3,A.A.3.3.3.A,.3.A.3..3.,.,.,",
"                                          !##4@*969&&%6C969&9(&99&&':4#!8O<>5,,.3.3,A..A.A.A.A..3.3A,3,3,.,.,.,,,",
"                                                 #!$*%%%*%*%66&&&:4:))$#7N<>5,.,.,.3.333333333A33A..3A.33.3.,.,.,",
"                                                    $F***%6B&&#:4?877$$:8T<>,,,.A3A.A.A.A.A.A.3.A.3A..,3,.,.,.,,,",
"                                                  0@@*@G99((#:4?))$$**%9)^E55,3.,.3A3A3A3A3A33A3333.A3A33.3.,.,.,",
"                                                !)**=%66(##::87)$=@*%6B&(=E;,,.3A.3.3.3.3.3.3.3.A.A3.,.,3,.,..,5,",
"                                              !7=*@FC&(##4:8))7@**%96&'('=N;,,...A3A3A3A3A3A3A3A3A3.A333.3..,,.,,",
"                                            !!7*$F%B!##:4?)7$$*%%6&(((2''-OD5,.33.3.3.3.3.3.3.3.3.3A..,.,.,,.5,,5",
"                                          !!)=$*%B###:4?)7$**%%6&&('2'-/+/9E5,..A3A3S3S3S3A3A3A3A333,33333..,.,5,",
"                                        !07)$@C6!##:8?)$$**%96&((''2-+/-+/%Y;,,.3A.3.3.3.3.3.A.A.A..3.,.,.,.5,,,5",
"                                       !0$)=*6!##44?)7$=*%96&&('2//-/-+-1+/%M,.3..33S3S3SA3A33333333.333.,.,.,5,5",
"                                     0!)7$@6!###4K)7$**%96&((-2'+-+/++1+/-+*R;,,A3A3.S.S.3.3.A.3A..,3,...,.,5,,>5",
"                                   0!!7$*%!##:4K)7$**%9B&(''/2/-/-+-1+-++/-/%E5...3.333A3A3A33A3.333.3.,,.5,,,555",
"                                  !!77$%!!#:48)7$**%96&(2''-+--1+111+/+/-/2'$HD,,.A3A33.33.3.33.3.3,..,..,,,55>5>",
"                                !!0)$*!!##44)7$**%96(('2--/-+11+1-++-+-//'(2$*`>,..A3.A3A.A3A3.33,3.3,..,,5,>,55I",
"                              !!0)$=!!##:?)7$$*F9B&('2'-/-++++++1+1/+-2('2&('%GE5,3,.33.3A33.33,.3.,,.,,,5,555>;>",
"                             00!7$0!!##:8)7$*%%&&((2'-/+1+111111++/-/2-2(&'(22@X<5,..3.A.3..3,3.3.,..,,,5,55>5II;",
"                            !!0$0!!##48)7$*G%6&(('--++1+111111++-/'/''(&&('2---GR<I.,.3,3.33.3..,,.,5,55,55>5I;;;",
"                          !007$0#!#:4)7$$*%9&&2'2-+++11111+1++-/+-2'((&('2/-+/++%H<>,,,...,3,.,,..,,,,,555>I>;;;D",
"                         !0!!0!!#:48)7$*%9B&('2-/+1111L1L111-+-/'2(&&&('2--+-+-+/$[<;5,,,,..,..,,,5,,555>II;;;DD<",
"                       J!0!00!!##?)7$@*%6&(''-/-+11LLL111-++/-2'((&&&(2--/+/1+1+//$aH;>55,,,,,,,,5,555>II;;;;D<<<",
"                      !!0!0!####)8$$*%96&('2/-+11LL1111+++-/-2'((6&(''+/+-+1-+-/-''8$Q<;>5555,5555>5>I;>;;;DD<<PP",
"                     0J0!0!#!:8))$@*%6B'('2-++1L1111+1+/-/'2'(&&6(2'/-+-+-1+/+/-22(&44QE<;>>>>5>5I>;>;;;;D<<<<EEE",
"                    !!!!0!##4?)7$**%9&((2-/-111111+1+/-/2'((&&%&('2-/-++11+/+/'2(&&9%#9/WE<<;;;D;;;;;DD<<<<MEEHHO",
"                   !000!#!#:8)$=*F6&(('2/-+1+1+++/+--22'(2(&C6&('2--+111-+-+-/''&&6%*(669_WQEM<<DD<<<<<<PEEHHHOUR",
"                  !0!!!!!:8)7$$*%9B&('2'-+-+-+-+-/-22'((&B%'6((''-/+1++11++-/'((&CG*'2'--+@=1RQHEHEPHEHHHHOONN[ZX",
"                 J!0#!##:8K)$=GF6B'(2'-//-//+-//'2'(((&96%%B('2-/+1+111-+//2'2&6%%@'2-/++///-8&/^TRNNNUNRYWT]_((#",
"                !0!0!#!48))$=*%9&&&2(-2-'/'-2/'''((&&6%**%&&''-++1111+1+-/''((6C%$$'/-+/-+-+2-2'##!-_XB9%1&=)8+'/",
"               J!0#!##4?)7$@*%9B&('('2'2/2'2'(((&&69G%(FC&('2-+111+1+1-//'2(&6%F$$22-+-++/+/-''(6CF9(2-2-/''2--/'",
"              !0!0!!#4?))$**%%9&&&(2('('('(((&&669G*($FC&('/-+1+L1111+//''(&6%G$$'--+-11-+--22&B6%@++2-+'/'('22-/",
"             !!0#!##:8)7$=*%%9B&&(&&((2&(&&&69%*$$&&=*6&('2-+11L111+/-'2(&&9%*$72///+1+/+//2'(&9%*+-/-//-/''&-'/'",
"            !000!#!?4))$$@*%C696&&&&&&BB96C%*G=$(&&$%6B'2-++111L+1++-/'('6%%*$)'--+-1-++/-''(&69G$+-+/+/-2'(&2/'/",
"            0!!#!#:4)7$$***%%%C96C9699%%%%*$$7&B%(@*9&''/-11LLL11+/-2'2&6C%=$)2'+-1+1++/-22'(6%*@71++-'-22(&&-'/'",
"           0!0!!#:88))$$$@GF%%%%%%%%**=*$$7&9%%%7$*6&(2-++1L1111+/-2'(&V%*$$)'--1-+1-+/-2'((69%*$111-+//(''(B222'",
"           !00#!#4:8)77$$@=@*******$=$7))6%***%7**6&('--+11L11++-/2'&B9%*=$)''/-1+11++-/'('B9G*$7+1++/'-'2(&9(-('",
"           0!#!##?4)))7$$$$$=$$$$$7)))9%*=$$$6)=*C&(2-/+11L111+-2''(&%%*$))+(+-+11+++/-2((&6%@=$+11+/-/22(&&6'2''",
"          !!0!!#:4:8))))7)$)7)78):4?**$$$*$$C)$*9&(''-+1111++/-2'(&9%G=$)'/'/-+1+11//-22(&9%*=$K111/+/-'('(&92(2(",
"           0!0#!#:48:884)8K8)#44#@=$$7@=*$=67$%%B(2'/111+11+-/2((&6C*=$)'(''-+1111++-/('&6%@=$)'+1++-2('2(&6%('('",
"           !0#!#!#####::#4#:#*$$$$@*@***$=C)$*%6'('/+-++1+/-2'('B6%*$7)&((2-+1111+/-2''&B%%*$)K+111+-/2'(&&6%%(&(",
"            0!0!!#!##!###!$7)77$7!   )@7=98$*%B&('/--+1+-/'2'(&6%F@$$8((2'-1+11+1+-/'(&&%%*$7)'-+1+/2(''((66%F('(",
"             !0!0#0!0#0!!#0!!!      0*7$:)$@F6&(2'+/++/-//''(&6%G$$)8(&&'2-+1L11-/22('BC%*$7)8(++1/-/'2'&&9C%*&(&",
"                 !!!0!!            !7)$:8)=*C&(('/'/-/-2''((6%%*$7)?(&-2--+1L11+//''(69%*=$)?(/-11+/-'((&B6%F*&(&",
"                                   7)$#87$*%6&('2'+-/'2''&&6%%@$7?4&&2('-+11L1++/'2(&6%G$7)88&+-++/'22'(&9C%*@(&&",
"                                  !)$#8)$*%9&(2('/'2'2((&BC%*$7)44&&((2'/+1L11-/''(&9%*=$)):(+-+1/-/'((&&6%%*=&B&",
"                                 !)7*:)$$FC6(&('/'('('&&6%F*$7)?&V6(&''-+111++//''&B%F@$))?#(2-/-+/'2'&&69%*@$B&B",
"                                !0$$#87$*%9&&2(2((2(&B9C%*$$)8:(66(2&'//+1+11-''(&B%**$))?4(&''/+--2(((&9%%**$766",
"                                0$$#4)$**96&('&'((&&99%*=$7))#&6%&(&''+-111+//2('69%*$7)8:&&/'/-//2'2(&6C%G@=$)99",
"                               0!)#?)$$*%9B&&(&'&&96%%*$$)?4#B%G%(6('/-++1++-('&&CF*$7)8:#(6/''2--2''(&6%%*=$7)66",
"                              !!)##8)$*F%C&B&&&66C%G@=$)8::&C%*%&'&(2--11+/-2'&&C%*$$)84#&B&/'/-//'(&&66%%@*$77CC",
"                              0!##4)$=*%%696969C%%*$$7)8:46%*$@6&B('-+/++/-2((B9%*$7))::#&%'(''2''2'(&9C%**$$))%%",
"                             00!#48)$$*%%%9CC%%F**$7)8?4#%@=*6%&C&2'2-/+-/22(&9%*=$))8#:6V*2('2//'((&B6%%*@$7)8%%",
"                             !!#::)7$**%%%%%%**$$$))44#C%@$*%*6'6('2-+/-/''(&9%*@$78:4#66%6((('('2'&&9%%**$$7))*%",
"                            !0!#48)7$@***@**$=$$7)?4##%*$***$C&C&(''/--/'2(&6%**7))48#!9%%&2'(2'2(((66%%@=$$))?6*",
"                            0!##?8)$$=@*@=*$$7))8#:##*$7= @%%9%6(2'/'/2('(&V%*=$))?:#!6%%%&(&2'(''&&99%**=$7))4C*",
"                           0!!##4))7$$$$$$7$))844#!%$$=$ !**%&%&&('-2-'2(&6%F@$))?4#!99**%&'&((2('(B6%%@=$$7)8?%*",
"                           !0##4?))77$7$)7)884:##!*)=$   7*@6G6&(2(2'2((&6C**$7)?4##%%**%C(2&('&2(&69%**$$7))?4%=",
"                           0!!#:4))))))K)8?4:##!@$)7!   !$@%=%9&2(-2('(&B%F@$))?44##%*% %C&(&&(((&V6%%@*$$)K88:%$",
"                          !!!##4??8)8)8484###0!$)7!     #**9*%B'&'(''(&69**$7)84###%G*  =9&6&(&'&&69%F*=$$))84:%6",
"                          00!!4#448:8:4:##!!!$77!       7*%=%C&(((2(&&6%*@$7)8:4#!%**$ 0*%&9B&&(&B6C%*=$$7K):?#%%",
"                          !0!###:#:#:##!!#077!!        0$*9*%9&&2(&(B6%G*$7)84##!#*$7  !@6&C9&(&&B9%@*$$7))884:F*",
"                          0!0!!#####!#!#!0!!!          !*G$*%9&(&&&69%%@$7)8:4##!*$$   J=%&%9&&B66%%**$$7)K8::#**",
"                          !0#!#!!!!!0#!00!0           !$*7$FC6V&&&B6%**$7)8:4#!!F$7    !*9B%969B99%G*=$$))8?4##*@",
"                           !0000#0#00!0!!             #$*$*%%96B96C%*@$7)8?4##!*$7!    !=%BFC9696%%**$$7K)?8:4#*$",
"                            !!!00!0!!!               !!=)$*FC6696%%F@$))84##!#!$7!     0496%%666C%**$$7)))44###*$",
"                              0!!                    0$*7$*%%9C%%%*$$))8:4!#!!$7!      !?%9G%%C9%%**$$7)?8?:4#!$$",
"                                                     !=)$$*%%%%%F*$$7)8:4##!#$7!        4%6*%%%%%@*=$$))):44###=$",
"                                                    !!@8$=**%%%@*$$))8:4##!!$7!         4%9*FG%%FG=$$7K)?8?4!#$$*",
"                                                    0#8)$$*****=$$))?4##!!#$7!          :%C@*%%%**$$7))84:4#4!*7*",
"                                                    !$8)$=@@@*$$$)8?44#!#0!7!           #FC=@***@=$$7)K8?4####$$7",
"                                                   0#:8)$$$==$$7K844##!#0!7!            #%%=*@G**=$$))844:4#!!$$ ",
"                                                   !!4)77$$$$7))88:###!0!7!             #G%$@=@*$$$7?)8?#4###!7$ ",
"                                                   0#:8)7$7$)))8:4##!0#!7!              #8%$$@=*$$7))):444#!#!$7 ",
"                                                   ##:))))7))8?4##!#!#00!               !8F$$=$=$$)K8?8#4###!!7! ",
"                                                  !!#48K7)))?44:##0!00!!                !8G$$$$$$)))84:4##!#!$7! ",
"                                                  0##:?)8)8:8:###!!#!!0                 #4)7$$$$77))??44##!#!)7  ",
"                                                  !##844?:84:#!#0#000!                  048)7)7$)K)844###!#!!7!  ",
"                                                  !!#::?44####!!0!!!!                   !:8))777))8:?44!##!#!7!  ",
"                                                  0!#4#4:###!!0#!00!                    !#?))7))K)?84###!#!!07!  ",
"                                                  !#!#####!!0#0!J!!                     0#:)K))))84::4!##!#!7!   ",
"                                                  !0!#!#!#0#0!!0!!                       #:88)K):8?4####!#!!7!   ",
"                                                  0#!!!!!#0!!00!                         #:4?)8)88:4##!!#0!00!   ",
"                                                  J!0#0#0!!0J!!                          !#?:):8?:#4####!#!#!    ",
"                                                   00!!0!00!!                            !#4884?444##!!!!!00!    ",
"                                                   !!0J!J!!                              0#::?:8:###!##0#0#0!    ",
"                                                     !!!                                 !!#4844#4!##!!!!!0!     ",
"                                                                                          !#:#:#:###!#!#0#0!     ",
"                                                                                          !!#4:4##!#!0!0!0!!     ",
"                                                                                          !##!###!#0#!#0#!0      ",
"                                                                                          0!!###!#!#!#0#J0!      ",
"                                                                                           !#!#!##0!!00!!!       ",
"                                                                                           0!#!#!!!#0#!J0!       ",
"                                                                                           !0#!#0#!0!00!!        ",
"                                                                                            0!0#!!0#0!!0!        ",
"                                                                                            !#!!0#!J!J0!         ",
"                                                                                             00#!J0!0!!          ",
"                                                                                             !0!0!!J!0!          ",
"                                                                                              !0!J0!0!           ",
"                                                                                               !0!!!             ",
"                                                                                                                 ",
"                                                                                                                 ",
"                                                                                                                 ",
"                                                                                                                 ",
"                                                                                                                 ",
"                                                                                                                 ",
"                                                                                                                 ",
"                                                                                                                 ",
"                                                                                                                 ",
"                                                                                                                 ",
"                                                                                                                 ",
"                                                                                                                 ",
"                                                                                                                 ",
"                                                                                                                 "
};
