/* XPM */
static char * pwicq[] = {
/* width height ncolors chars_per_pixel */
"51 20 15 1",
/* colors */
"  c #D1D1D1",
"! c #020202",
"# c #BEBEBE",
"$ c #7A7A7A",
"% c #121212",
"& c #222222",
"' c #424242",
"( c #626262",
") c #9E9E9E",
"* c #CECECE",
"+ c #AEAEAE",
", c #DEDEDE",
"- c #8E8E8E",
". c #323232",
"/ c #525252",
/* pixels */
"                                                   ",
"                                                   ",
"                                                   ",
"                        ##     ,-$)      *$$)      ",
"                        !!#   $!!!!&*   (!!!!%)    ",
"                        !!#  -!!($%!%  $!!($'!!#   ",
"   ##      *#   #,  ##  !!#  %!$  *!!) !!-   /!'   ",
"   !!$%%$  (!+ -!( ,!&  !!# #!!    +, +!%    #!!   ",
"   !!!'%!$ )!$ /!% )!(  !!# $!'       $!'     !!#  ",
"   !!  *!!  !& !!!+(!+  !!# $!'       $!'     !!#  ",
"   !!   '!# '!$!(!$&!   !!# $!'       $!.     !!#  ",
"   !!   '!# -!&!,%&!/   !!# #!!    $-,#!!    +!!   ",
"   !!  *!!  *!!& (!!)   !!#  %!(  #!!+ %!(   .!/   ",
"   !!!'%!$   &!$ +!!,   !!#  )!!&.!!.  )!!&'%!%*   ",
"   !!+&!$    $!*  %.    !!#   +&!!!/    )%!!!&*    ",
"   !!                           *#,       !!-      ",
"   !!                                     (!%)#    ",
"   !!                                      $&!!#   ",
"   ##                                              ",
"                                                   "
};
